<svg width="483" height="278" viewBox="0 0 483 278" fill="none" xmlns="http://www.w3.org/2000/svg">
<path d="M452.093 277C461.9 272.849 480.664 257.801 481.831 246.577C483.535 230.109 471.844 219.789 470.722 218.835C463.347 212.549 452.319 209.647 443.562 214.093C441.579 215.106 435.441 218.225 434.302 224.924C433.539 229.4 435.047 235.254 439.03 237.556C443.947 240.389 450.157 236.375 453.019 232.814C458.824 225.613 455.899 212.047 452.4 205.967C441.211 186.499 397.172 198.501 356.732 205.967C356.732 205.967 287.669 218.717 196.864 216.12C101.035 213.385 58.8541 187.276 38.4411 171.005C25.5113 160.695 0.531137 140.204 1.00669 112.353C1.04259 110.14 1.52711 94.4196 12.5277 82.1227C26.265 66.7663 49.2533 62.7428 63.9596 72.1966C66.2477 73.6624 73.417 78.2762 75.8934 87.5334C77.4906 93.5146 77.6611 103.401 71.7749 108.733C64.8928 114.98 53.5961 111.498 47.4946 105.575C37.7143 96.0822 40.7471 79.7715 41.3214 76.7022C44.067 61.9755 54.287 53.4561 59.0157 49.6293C74.5296 37.0963 91.5657 32.4825 109.218 26.3136C207.368 -7.98613 288.633 15.5816 298.791 20.0267C308.949 24.4718 333.329 36.0291 373.961 45.8084C394.277 48.031 410.083 50.6886 435.316 39.5852" stroke="#808080" stroke-width="2" stroke-miterlimit="10" stroke-dasharray="7.8 7.8"/>
<g clip-path="url(#clip0_132_170)">
<path d="M447.59 38.8479L451.303 35.1933L452.079 34.4294L452.309 34.2033L457.486 29.1067C458.302 28.3031 458.419 26.8574 457.748 25.8809L453.487 19.6885C452.815 18.7121 451.606 18.5718 450.79 19.3754L446.275 23.8194L445.382 24.698L444.615 25.4534L440.894 29.1168C438.598 31.3769 438.225 35.4031 440.072 38.0875C441.919 40.7722 445.295 41.1073 447.59 38.8479ZM453.386 36.3287L452.079 34.4294L445.383 24.6979L444.07 22.7919L443.305 23.5448L444.615 25.4532L451.303 35.1933L452.608 37.0951L453.386 36.3287Z" fill="#D3D3D3"/>
<path d="M439.175 27.6834L439.594 27.2712L443.153 23.7238L443.171 23.7498L443.886 23.0464L447.083 19.8606L448.124 18.8229L447.83 18.3957L447.268 17.5786L445.206 14.5827L444.807 14.0035L438.783 5.24856L438.426 5.59963L438.069 5.95133L434.491 9.4733L434.134 9.82438L433.809 10.1441L433.777 10.1761L429.875 14.0177L429.517 14.3688L433.079 19.544L433.653 20.3783L433.64 20.3911L434.27 21.3059L434.282 21.294L434.79 22.0301L438.292 27.1201L438.636 27.6209L438.88 27.9746L439.175 27.6834ZM442.531 22.8966L441.102 24.3028L438.772 20.9166L440.2 19.5109L442.531 22.8966ZM439.613 18.6563L438.184 20.0625L435.856 16.6489L437.285 15.2427L439.613 18.6563ZM438.084 14.617L438.029 14.536L439.458 13.1298L441.785 16.5435L440.357 17.9498L439.786 17.1119L438.084 14.617ZM443.277 22.1618L440.947 18.7762L442.375 17.37L444.705 20.7561L443.277 22.1618ZM446.822 18.6719L445.394 20.0783L443.064 16.6921L444.492 15.2863L446.822 18.6719ZM443.904 14.4317L442.476 15.838L440.148 12.4244L441.576 11.0181L443.904 14.4317ZM438.656 6.8055L440.987 10.1917L439.558 11.5978L437.228 8.21168L438.656 6.8055ZM435.111 10.2952L436.539 8.88969L438.869 12.2759L437.441 13.6814L435.111 10.2952ZM434.365 11.0301L436.695 14.4163L435.266 15.8226L432.936 12.4364L434.365 11.0301ZM430.82 14.5199L432.248 13.1142L434.578 16.5004L433.15 17.906L430.82 14.5199ZM435.494 21.3365L433.792 18.8415L433.737 18.7606L435.166 17.3544L437.493 20.768L436.065 22.1744L435.494 21.3365ZM436.655 23.0008L438.084 21.5945L440.413 24.9808L438.985 26.3863L436.655 23.0008Z" fill="#D3D3D3"/>
<path d="M440.201 19.5123L442.531 22.8983L441.103 24.3039L438.773 20.9178L440.201 19.5123ZM438.184 20.0625L435.856 16.6489L437.285 15.2427L439.613 18.6563L438.184 20.0625ZM438.985 26.3863L436.655 23.0008L438.084 21.5945L440.413 24.9807L438.985 26.3863ZM436.065 22.1743L435.494 21.3364L433.792 18.8414L433.737 18.7606L435.166 17.3545L437.493 20.7681L436.065 22.1743ZM432.247 13.1134L434.577 16.4994L433.149 17.9053L430.819 14.5189L432.247 13.1134ZM434.364 11.029L436.695 14.4152L435.266 15.8216L432.936 12.4354L434.364 11.029ZM442.377 17.3706L444.707 20.7559L443.279 22.1624L440.948 18.777L442.377 17.3706ZM444.491 15.2853L446.82 18.6714L445.392 20.0769L443.063 16.6907L444.491 15.2853ZM440.357 17.9497L439.785 17.1118L438.084 14.6169L438.029 14.536L439.457 13.1298L441.785 16.5435L440.357 17.9497ZM442.476 15.838L440.148 12.4243L441.576 11.0181L443.904 14.4317L442.476 15.838ZM436.539 8.88875L438.869 12.2749L437.441 13.6806L435.111 10.2945L436.539 8.88875ZM438.657 6.80581L440.987 10.1918L439.559 11.5979L437.229 8.21187L438.657 6.80581Z" fill="#CCE9FF"/>
<path d="M457.833 54.6592L458.251 54.247L461.81 50.6994L461.828 50.7256L462.543 50.0222L465.74 46.8364L466.781 45.7987L466.487 45.3715L465.925 44.5543L463.863 41.5585L463.464 40.9792L457.44 32.2243L457.083 32.5754L456.726 32.9271L453.148 36.449L452.791 36.8L452.466 37.1197L452.434 37.1517L448.532 40.9934L448.174 41.3445L451.736 46.5195L452.31 47.354L452.297 47.3668L452.927 48.2816L452.939 48.2695L453.446 49.0057L456.949 54.0958L457.293 54.5966L457.537 54.9502L457.833 54.6592ZM461.188 49.8723L459.759 51.2785L457.429 47.8924L458.857 46.4867L461.188 49.8723ZM458.27 45.6321L456.841 47.0383L454.513 43.6247L455.942 42.2185L458.27 45.6321ZM456.741 41.5927L456.686 41.5118L458.114 40.1056L460.442 43.5191L459.014 44.9255L458.443 44.0876L456.741 41.5927ZM461.934 49.1375L459.604 45.7518L461.032 44.3457L463.362 47.7318L461.934 49.1375ZM465.479 45.6477L464.051 47.054L461.721 43.6678L463.149 42.2621L465.479 45.6477ZM462.561 41.4075L461.133 42.8138L458.805 39.4002L460.233 37.9939L462.561 41.4075ZM457.313 33.7811L459.644 37.1674L458.215 38.5736L455.885 35.1875L457.313 33.7811ZM453.768 37.271L455.196 35.8655L457.526 39.2516L456.099 40.6572L453.768 37.271ZM453.022 38.0058L455.352 41.3919L453.924 42.7983L451.593 39.4119L453.022 38.0058ZM449.477 41.4956L450.905 40.0899L453.235 43.4761L451.807 44.8818L449.477 41.4956ZM454.151 48.3123L452.449 45.8173L452.395 45.7364L453.823 44.3302L456.15 47.7438L454.722 49.15L454.151 48.3123ZM455.312 49.9765L456.741 48.5703L459.07 51.9565L457.642 53.3621L455.312 49.9765Z" fill="#D3D3D3"/>
<path d="M458.859 46.4868L461.189 49.8729L459.761 51.2784L457.431 47.8923L458.859 46.4868ZM456.841 47.0383L454.513 43.6247L455.942 42.2185L458.27 45.6321L456.841 47.0383ZM456.742 48.5688L459.073 51.9542L457.645 53.3605L455.314 49.9752L456.742 48.5688ZM454.722 49.15L454.151 48.3123L452.449 45.8173L452.395 45.7364L453.823 44.3302L456.15 47.7439L454.722 49.15ZM450.904 40.0896L453.235 43.4757L451.807 44.8815L449.477 41.4954L450.904 40.0896ZM453.023 38.0053L455.353 41.3913L453.924 42.7977L451.594 39.4116L453.023 38.0053ZM461.034 44.3442L463.364 47.7295L461.936 49.136L459.605 45.7506L461.034 44.3442ZM463.148 42.2624L465.478 45.6486L464.05 47.054L461.72 43.6676L463.148 42.2624ZM459.014 44.9255L458.443 44.0875L456.741 41.5927L456.686 41.5118L458.114 40.1056L460.442 43.5191L459.014 44.9255ZM461.133 42.8137L458.805 39.4001L460.233 37.9939L462.561 41.4075L461.133 42.8137ZM455.195 35.8654L457.525 39.2518L456.097 40.6573L453.767 37.271L455.195 35.8654ZM457.314 33.7806L459.644 37.1666L458.216 38.5728L455.885 35.1868L457.314 33.7806Z" fill="#CCE9FF"/>
<path d="M459.819 20.3112C459.621 20.2886 459.428 20.2194 459.251 20.1074C459.075 19.9954 458.919 19.843 458.793 19.6587C458.666 19.4745 458.571 19.2621 458.513 19.0338C458.455 18.8055 458.435 18.5658 458.455 18.3284C458.474 18.0908 458.531 17.8601 458.625 17.6494C458.719 17.4387 458.846 17.2522 459 17.1006C459.154 16.949 459.332 16.8352 459.523 16.7659C459.714 16.6966 459.914 16.673 460.112 16.6965C460.311 16.7191 460.504 16.7884 460.68 16.9003C460.856 17.0123 461.012 17.1647 461.139 17.3489C461.266 17.5332 461.361 17.7455 461.419 17.9738C461.477 18.2021 461.497 18.4418 461.477 18.6792C461.458 18.9168 461.4 19.1475 461.307 19.3582C461.213 19.5689 461.085 19.7554 460.931 19.907C460.777 20.0587 460.6 20.1724 460.409 20.2418C460.218 20.3111 460.018 20.3347 459.819 20.3112Z" fill="#FFBE55"/>
<path d="M463.657 23.3392C461.537 25.4508 458.275 24.8756 456.344 22.0691C454.436 19.2655 454.594 15.2981 456.711 13.2141L463.657 23.3392Z" fill="#E4E7E7"/>
<path d="M451.974 30.5156C450.85 31.6481 449.153 31.4511 448.208 30.0783C447.983 29.7546 447.814 29.3808 447.711 28.9786C447.608 28.5764 447.572 28.1538 447.606 27.735C447.64 27.3162 447.743 26.9096 447.909 26.5387C448.075 26.1678 448.301 25.8398 448.574 25.5738C449.698 24.4412 451.395 24.6383 452.34 26.011C452.564 26.3348 452.733 26.7085 452.837 27.1107C452.94 27.5129 452.976 27.9356 452.942 28.3544C452.908 28.7732 452.805 29.1798 452.639 29.5507C452.473 29.9216 452.247 30.2496 451.974 30.5156Z" fill="#2A94F4"/>
<path d="M451.533 29.8749C450.692 30.7034 449.436 30.5577 448.744 29.5511C448.051 28.5446 448.173 27.0428 449.014 26.2144C449.856 25.3859 451.111 25.5317 451.804 26.5383C452.497 27.5448 452.375 29.0465 451.533 29.8749Z" fill="#CCE9FF"/>
<path d="M441.705 28.3691L440.915 29.1474C440.841 29.1947 440.787 29.2729 440.711 29.3482L447.386 39.0488C447.439 38.9709 447.514 38.9233 447.59 38.848L448.381 38.0697L441.705 28.3691Z" fill="#FFBE55"/>
<path d="M463.657 23.3392C461.537 25.4508 458.275 24.8756 456.344 22.0691C454.436 19.2655 454.594 15.2981 456.711 13.2141L463.657 23.3392Z" fill="#D3D3D3"/>
</g>
<defs>
<clipPath id="clip0_132_170">
<rect width="55.0505" height="46.1846" fill="white" transform="matrix(-0.0808901 0.996723 -0.993328 -0.11532 473.313 5.32605)"/>
</clipPath>
</defs>
</svg>
