<svg width="15" height="15" viewBox="0 0 15 15" fill="none" xmlns="http://www.w3.org/2000/svg">
<path d="M4.5 12C3.67125 12 3.0075 12.6713 3.0075 13.5C3.0075 14.3287 3.67125 15 4.5 15C5.32875 15 6 14.3287 6 13.5C6 12.6713 5.32875 12 4.5 12ZM0 0V1.5H1.5L4.19625 7.18875L3.18375 9.02625C3.0675 9.24375 3 9.4875 3 9.75C3 10.5787 3.67125 11.25 4.5 11.25H13.5V9.75H4.81875C4.71375 9.75 4.63125 9.6675 4.63125 9.5625C4.63125 9.52875 4.63875 9.49875 4.65375 9.4725L5.325 8.25H10.9125C11.475 8.25 11.9662 7.93875 12.225 7.4775L14.9062 2.61C14.9663 2.505 15 2.38125 15 2.25C15 2.05109 14.921 1.86032 14.7803 1.71967C14.6397 1.57902 14.4489 1.5 14.25 1.5H3.16125L2.44875 0H0ZM12 12C11.1713 12 10.5075 12.6713 10.5075 13.5C10.5075 14.3287 11.1713 15 12 15C12.8287 15 13.5 14.3287 13.5 13.5C13.5 12.6713 12.8287 12 12 12Z" fill="white"/>
</svg>
