<svg width="30" height="31" viewBox="0 0 30 31" fill="none" xmlns="http://www.w3.org/2000/svg">
<path d="M15 30.9292C23.2843 30.9292 30 24.201 30 15.9014C30 7.60172 23.2843 0.873535 15 0.873535C6.71573 0.873535 0 7.60172 0 15.9014C0 24.201 6.71573 30.9292 15 30.9292Z" fill="#00446D"/>
<path d="M23.0307 13.7531C23.0307 11.7604 21.418 10.1448 19.4291 10.1448H10.2175C8.22852 10.1448 6.61584 11.7604 6.61584 13.7531V18.0464C6.61584 20.0391 8.22852 21.6547 10.2175 21.6547H19.4291C21.418 21.6547 23.0307 20.0391 23.0307 18.0464V13.7531ZM17.6142 16.2218L13.4837 18.2683C13.3224 18.3566 12.772 18.2382 12.772 18.0551V13.8522C12.772 13.6648 13.3267 13.5484 13.488 13.6411L17.4423 15.7953C17.6078 15.8901 17.782 16.1292 17.6142 16.2218Z" fill="white"/>
</svg>
