<svg width="154" height="73" viewBox="0 0 154 73" fill="none" xmlns="http://www.w3.org/2000/svg">
<path d="M16.4043 3.97363L16.5869 11.4775H15.9062C15.5853 9.59603 14.7939 8.08529 13.5322 6.94531C12.2816 5.79427 10.9258 5.21875 9.46484 5.21875C8.33594 5.21875 7.43945 5.52311 6.77539 6.13184C6.1224 6.72949 5.7959 7.42122 5.7959 8.20703C5.7959 8.70508 5.91211 9.14779 6.14453 9.53516C6.46549 10.0553 6.98014 10.57 7.68848 11.0791C8.20866 11.4443 9.40951 12.0918 11.291 13.0215C13.9251 14.3164 15.7015 15.5394 16.6201 16.6904C17.5277 17.8415 17.9814 19.1585 17.9814 20.6416C17.9814 22.5231 17.2454 24.1445 15.7734 25.5059C14.3125 26.8561 12.4531 27.5312 10.1953 27.5312C9.48698 27.5312 8.81738 27.4593 8.18652 27.3154C7.55566 27.1715 6.76432 26.9004 5.8125 26.502C5.28125 26.2806 4.84408 26.1699 4.50098 26.1699C4.21322 26.1699 3.90885 26.2806 3.58789 26.502C3.26693 26.7233 3.00684 27.0609 2.80762 27.5146H2.19336V19.0146H2.80762C3.2946 21.4053 4.22982 23.2314 5.61328 24.4932C7.00781 25.7438 8.50749 26.3691 10.1123 26.3691C11.3519 26.3691 12.3369 26.0316 13.0674 25.3564C13.8089 24.6813 14.1797 23.8955 14.1797 22.999C14.1797 22.4678 14.0358 21.9531 13.748 21.4551C13.4714 20.957 13.0452 20.4867 12.4697 20.0439C11.8942 19.5902 10.876 19.0036 9.41504 18.2842C7.36751 17.277 5.89551 16.4193 4.99902 15.7109C4.10254 15.0026 3.41081 14.2113 2.92383 13.3369C2.44792 12.4626 2.20996 11.4997 2.20996 10.4482C2.20996 8.65527 2.86849 7.12793 4.18555 5.86621C5.5026 4.60449 7.16276 3.97363 9.16602 3.97363C9.89648 3.97363 10.6048 4.06217 11.291 4.23926C11.8112 4.37207 12.4421 4.62109 13.1836 4.98633C13.9362 5.34049 14.4619 5.51758 14.7607 5.51758C15.0485 5.51758 15.2754 5.42904 15.4414 5.25195C15.6074 5.07487 15.7624 4.64876 15.9062 3.97363H16.4043ZM29.0713 24.709C27.1787 26.3802 25.4798 27.2158 23.9746 27.2158C23.0892 27.2158 22.3532 26.9281 21.7666 26.3525C21.18 25.766 20.8867 25.0355 20.8867 24.1611C20.8867 22.9769 21.3958 21.9144 22.4141 20.9736C23.4323 20.0218 25.6514 18.7601 29.0713 17.1885V15.6279C29.0713 14.4548 29.0049 13.7188 28.8721 13.4199C28.7503 13.11 28.5124 12.8444 28.1582 12.623C27.804 12.3906 27.4056 12.2744 26.9629 12.2744C26.2435 12.2744 25.6514 12.4349 25.1865 12.7559C24.8988 12.9551 24.7549 13.1875 24.7549 13.4531C24.7549 13.6855 24.9098 13.9733 25.2197 14.3164C25.6403 14.7923 25.8506 15.2516 25.8506 15.6943C25.8506 16.2367 25.6458 16.7015 25.2363 17.0889C24.8379 17.4652 24.3122 17.6533 23.6592 17.6533C22.9619 17.6533 22.3753 17.443 21.8994 17.0225C21.4346 16.6019 21.2021 16.1094 21.2021 15.5449C21.2021 14.748 21.5176 13.9899 22.1484 13.2705C22.7793 12.54 23.6592 11.9811 24.7881 11.5938C25.917 11.2064 27.0902 11.0127 28.3076 11.0127C29.7796 11.0127 30.9417 11.3281 31.7939 11.959C32.6572 12.5788 33.2161 13.2539 33.4707 13.9844C33.6257 14.4492 33.7031 15.5173 33.7031 17.1885V23.2148C33.7031 23.9232 33.7308 24.3714 33.7861 24.5596C33.8415 24.7367 33.9245 24.8695 34.0352 24.958C34.1458 25.0465 34.2731 25.0908 34.417 25.0908C34.7048 25.0908 34.998 24.8861 35.2969 24.4766L35.7949 24.875C35.2415 25.694 34.666 26.2917 34.0684 26.668C33.4818 27.0332 32.8122 27.2158 32.0596 27.2158C31.1742 27.2158 30.4824 27.0111 29.9844 26.6016C29.4863 26.181 29.182 25.5501 29.0713 24.709ZM29.0713 23.4971V18.3008C27.7321 19.0866 26.736 19.9277 26.083 20.8242C25.6514 21.4219 25.4355 22.0251 25.4355 22.6338C25.4355 23.1429 25.6182 23.5911 25.9834 23.9785C26.2601 24.2773 26.6475 24.4268 27.1455 24.4268C27.6989 24.4268 28.3408 24.1169 29.0713 23.4971ZM22.4307 6.18164H33.0889V8.8877H22.4307V6.18164ZM43.8467 11.4775V13.4863C44.6436 12.623 45.4072 11.9977 46.1377 11.6104C46.8682 11.2119 47.654 11.0127 48.4951 11.0127C49.5023 11.0127 50.3379 11.2949 51.002 11.8594C51.666 12.4128 52.1087 13.1045 52.3301 13.9346C52.5072 14.5654 52.5957 15.7773 52.5957 17.5703V23.6133C52.5957 24.8086 52.7008 25.5557 52.9111 25.8545C53.1325 26.1423 53.5863 26.3249 54.2725 26.4023V27H46.4199V26.4023C47.0065 26.3249 47.4271 26.0814 47.6816 25.6719C47.8587 25.3952 47.9473 24.709 47.9473 23.6133V16.707C47.9473 15.4342 47.8975 14.6318 47.7979 14.2998C47.6982 13.9678 47.5267 13.7132 47.2832 13.5361C47.0508 13.348 46.7907 13.2539 46.5029 13.2539C45.5511 13.2539 44.6657 13.9346 43.8467 15.2959V23.6133C43.8467 24.7754 43.9518 25.5114 44.1621 25.8213C44.3835 26.1312 44.7874 26.3249 45.374 26.4023V27H37.5215V26.4023C38.1745 26.3359 38.6393 26.1257 38.916 25.7715C39.1042 25.528 39.1982 24.8086 39.1982 23.6133V14.8477C39.1982 13.6745 39.0876 12.944 38.8662 12.6562C38.6559 12.3685 38.2077 12.1803 37.5215 12.0918V11.4775H43.8467ZM62.7393 4.48828V19.2969L66.3418 15.7607C67.0833 15.0413 67.5426 14.5212 67.7197 14.2002C67.9079 13.8792 68.002 13.5693 68.002 13.2705C68.002 12.9717 67.8802 12.7227 67.6367 12.5234C67.3932 12.3242 66.9173 12.1803 66.209 12.0918V11.4775H73.165V12.0918C72.501 12.125 71.9199 12.2855 71.4219 12.5732C70.9238 12.8499 69.9499 13.6966 68.5 15.1133L66.8066 16.7734L70.459 22.1191C71.931 24.2884 72.8053 25.5059 73.082 25.7715C73.4583 26.1478 73.9342 26.3581 74.5098 26.4023V27H66.4912V26.4023C66.8454 26.4023 67.0999 26.3359 67.2549 26.2031C67.4209 26.0703 67.5039 25.9264 67.5039 25.7715C67.5039 25.5169 67.2715 25.0465 66.8066 24.3604L63.7354 19.8613L62.7393 20.8408V23.6299C62.7393 24.8141 62.8499 25.5557 63.0713 25.8545C63.2926 26.1423 63.7464 26.3249 64.4326 26.4023V27H56.4141V26.4023C57.0671 26.3359 57.5319 26.1257 57.8086 25.7715C57.9967 25.528 58.0908 24.8141 58.0908 23.6299V7.8584C58.0908 6.68522 57.9801 5.95475 57.7588 5.66699C57.5485 5.37923 57.1003 5.19108 56.4141 5.10254V4.48828H62.7393ZM83.9229 24.709C82.0303 26.3802 80.3314 27.2158 78.8262 27.2158C77.9408 27.2158 77.2048 26.9281 76.6182 26.3525C76.0316 25.766 75.7383 25.0355 75.7383 24.1611C75.7383 22.9769 76.2474 21.9144 77.2656 20.9736C78.2839 20.0218 80.5029 18.7601 83.9229 17.1885V15.6279C83.9229 14.4548 83.8564 13.7188 83.7236 13.4199C83.6019 13.11 83.3639 12.8444 83.0098 12.623C82.6556 12.3906 82.2572 12.2744 81.8145 12.2744C81.0951 12.2744 80.5029 12.4349 80.0381 12.7559C79.7503 12.9551 79.6064 13.1875 79.6064 13.4531C79.6064 13.6855 79.7614 13.9733 80.0713 14.3164C80.4919 14.7923 80.7021 15.2516 80.7021 15.6943C80.7021 16.2367 80.4974 16.7015 80.0879 17.0889C79.6895 17.4652 79.1637 17.6533 78.5107 17.6533C77.8135 17.6533 77.2269 17.443 76.751 17.0225C76.2861 16.6019 76.0537 16.1094 76.0537 15.5449C76.0537 14.748 76.3691 13.9899 77 13.2705C77.6309 12.54 78.5107 11.9811 79.6396 11.5938C80.7686 11.2064 81.9417 11.0127 83.1592 11.0127C84.6312 11.0127 85.7933 11.3281 86.6455 11.959C87.5088 12.5788 88.0677 13.2539 88.3223 13.9844C88.4772 14.4492 88.5547 15.5173 88.5547 17.1885V23.2148C88.5547 23.9232 88.5824 24.3714 88.6377 24.5596C88.693 24.7367 88.776 24.8695 88.8867 24.958C88.9974 25.0465 89.1247 25.0908 89.2686 25.0908C89.5563 25.0908 89.8496 24.8861 90.1484 24.4766L90.6465 24.875C90.0931 25.694 89.5176 26.2917 88.9199 26.668C88.3333 27.0332 87.6637 27.2158 86.9111 27.2158C86.0257 27.2158 85.334 27.0111 84.8359 26.6016C84.3379 26.181 84.0335 25.5501 83.9229 24.709ZM83.9229 23.4971V18.3008C82.5837 19.0866 81.5876 19.9277 80.9346 20.8242C80.5029 21.4219 80.2871 22.0251 80.2871 22.6338C80.2871 23.1429 80.4697 23.5911 80.835 23.9785C81.1117 24.2773 81.499 24.4268 81.9971 24.4268C82.5505 24.4268 83.1924 24.1169 83.9229 23.4971ZM77.2822 6.18164H87.9404V8.8877H77.2822V6.18164ZM98.7979 11.4775V14.9971C99.8271 13.3923 100.729 12.3298 101.504 11.8096C102.279 11.2783 103.026 11.0127 103.745 11.0127C104.365 11.0127 104.857 11.2064 105.223 11.5938C105.599 11.9701 105.787 12.5068 105.787 13.2041C105.787 13.9456 105.604 14.5212 105.239 14.9307C104.885 15.3402 104.453 15.5449 103.944 15.5449C103.358 15.5449 102.849 15.3568 102.417 14.9805C101.985 14.6042 101.731 14.3939 101.653 14.3496C101.543 14.2832 101.415 14.25 101.271 14.25C100.951 14.25 100.646 14.3717 100.358 14.6152C99.9046 14.9915 99.5615 15.5283 99.3291 16.2256C98.9749 17.2992 98.7979 18.4834 98.7979 19.7783V23.3477L98.8145 24.2773C98.8145 24.9082 98.8532 25.3122 98.9307 25.4893C99.0635 25.7881 99.2572 26.0094 99.5117 26.1533C99.7773 26.2861 100.22 26.3691 100.84 26.4023V27H92.4561V26.4023C93.1312 26.347 93.585 26.1644 93.8174 25.8545C94.0609 25.5335 94.1826 24.6979 94.1826 23.3477V14.7646C94.1826 13.8792 94.1383 13.3148 94.0498 13.0713C93.9391 12.7614 93.7786 12.5345 93.5684 12.3906C93.3581 12.2467 92.9873 12.1471 92.4561 12.0918V11.4775H98.7979ZM122.289 3.97363L122.472 11.4775H121.791C121.47 9.59603 120.679 8.08529 119.417 6.94531C118.166 5.79427 116.811 5.21875 115.35 5.21875C114.221 5.21875 113.324 5.52311 112.66 6.13184C112.007 6.72949 111.681 7.42122 111.681 8.20703C111.681 8.70508 111.797 9.14779 112.029 9.53516C112.35 10.0553 112.865 10.57 113.573 11.0791C114.093 11.4443 115.294 12.0918 117.176 13.0215C119.81 14.3164 121.586 15.5394 122.505 16.6904C123.412 17.8415 123.866 19.1585 123.866 20.6416C123.866 22.5231 123.13 24.1445 121.658 25.5059C120.197 26.8561 118.338 27.5312 116.08 27.5312C115.372 27.5312 114.702 27.4593 114.071 27.3154C113.44 27.1715 112.649 26.9004 111.697 26.502C111.166 26.2806 110.729 26.1699 110.386 26.1699C110.098 26.1699 109.794 26.2806 109.473 26.502C109.152 26.7233 108.892 27.0609 108.692 27.5146H108.078V19.0146H108.692C109.179 21.4053 110.115 23.2314 111.498 24.4932C112.893 25.7438 114.392 26.3691 115.997 26.3691C117.237 26.3691 118.222 26.0316 118.952 25.3564C119.694 24.6813 120.064 23.8955 120.064 22.999C120.064 22.4678 119.921 21.9531 119.633 21.4551C119.356 20.957 118.93 20.4867 118.354 20.0439C117.779 19.5902 116.761 19.0036 115.3 18.2842C113.252 17.277 111.78 16.4193 110.884 15.7109C109.987 15.0026 109.296 14.2113 108.809 13.3369C108.333 12.4626 108.095 11.4997 108.095 10.4482C108.095 8.65527 108.753 7.12793 110.07 5.86621C111.387 4.60449 113.048 3.97363 115.051 3.97363C115.781 3.97363 116.49 4.06217 117.176 4.23926C117.696 4.37207 118.327 4.62109 119.068 4.98633C119.821 5.34049 120.347 5.51758 120.646 5.51758C120.933 5.51758 121.16 5.42904 121.326 5.25195C121.492 5.07487 121.647 4.64876 121.791 3.97363H122.289ZM134.956 24.709C133.063 26.3802 131.365 27.2158 129.859 27.2158C128.974 27.2158 128.238 26.9281 127.651 26.3525C127.065 25.766 126.771 25.0355 126.771 24.1611C126.771 22.9769 127.281 21.9144 128.299 20.9736C129.317 20.0218 131.536 18.7601 134.956 17.1885V15.6279C134.956 14.4548 134.89 13.7188 134.757 13.4199C134.635 13.11 134.397 12.8444 134.043 12.623C133.689 12.3906 133.29 12.2744 132.848 12.2744C132.128 12.2744 131.536 12.4349 131.071 12.7559C130.784 12.9551 130.64 13.1875 130.64 13.4531C130.64 13.6855 130.795 13.9733 131.104 14.3164C131.525 14.7923 131.735 15.2516 131.735 15.6943C131.735 16.2367 131.531 16.7015 131.121 17.0889C130.723 17.4652 130.197 17.6533 129.544 17.6533C128.847 17.6533 128.26 17.443 127.784 17.0225C127.319 16.6019 127.087 16.1094 127.087 15.5449C127.087 14.748 127.402 13.9899 128.033 13.2705C128.664 12.54 129.544 11.9811 130.673 11.5938C131.802 11.2064 132.975 11.0127 134.192 11.0127C135.664 11.0127 136.826 11.3281 137.679 11.959C138.542 12.5788 139.101 13.2539 139.355 13.9844C139.51 14.4492 139.588 15.5173 139.588 17.1885V23.2148C139.588 23.9232 139.616 24.3714 139.671 24.5596C139.726 24.7367 139.809 24.8695 139.92 24.958C140.031 25.0465 140.158 25.0908 140.302 25.0908C140.59 25.0908 140.883 24.8861 141.182 24.4766L141.68 24.875C141.126 25.694 140.551 26.2917 139.953 26.668C139.367 27.0332 138.697 27.2158 137.944 27.2158C137.059 27.2158 136.367 27.0111 135.869 26.6016C135.371 26.181 135.067 25.5501 134.956 24.709ZM134.956 23.4971V18.3008C133.617 19.0866 132.621 19.9277 131.968 20.8242C131.536 21.4219 131.32 22.0251 131.32 22.6338C131.32 23.1429 131.503 23.5911 131.868 23.9785C132.145 24.2773 132.532 24.4268 133.03 24.4268C133.584 24.4268 134.226 24.1169 134.956 23.4971ZM128.315 6.18164H138.974V8.8877H128.315V6.18164ZM149.549 5.7998V11.4775H153.234V13.1211H149.549V22.7002C149.549 23.5967 149.588 24.1777 149.665 24.4434C149.754 24.6979 149.903 24.9082 150.113 25.0742C150.324 25.2292 150.517 25.3066 150.694 25.3066C151.414 25.3066 152.094 24.7588 152.736 23.6631L153.234 24.0283C152.338 26.1533 150.882 27.2158 148.868 27.2158C147.883 27.2158 147.048 26.9447 146.361 26.4023C145.686 25.849 145.255 25.2347 145.066 24.5596C144.956 24.1833 144.9 23.165 144.9 21.5049V13.1211H142.875V12.54C144.27 11.555 145.454 10.5202 146.428 9.43555C147.413 8.35091 148.271 7.139 149.001 5.7998H149.549Z" fill="#00446D"/>
<path d="M44.4141 48.8828C44.7344 48.8828 44.8945 49.0312 44.8945 49.3281V49.8086C44.8945 49.957 44.8516 50.0703 44.7656 50.1484C44.6875 50.2266 44.5703 50.2656 44.4141 50.2656H41.5078V63.543C41.5078 63.6992 41.457 63.8164 41.3555 63.8945C41.2539 63.9648 41.0859 64 40.8516 64H40.5703C40.3359 64 40.168 63.9648 40.0664 63.8945C39.9648 63.8164 39.9141 63.6992 39.9141 63.543V58.2812C39.0469 58.5234 38.1836 58.6445 37.3242 58.6445C36.4961 58.6445 35.6875 58.5156 34.8984 58.2578C34.1172 58 33.418 57.625 32.8008 57.1328C32.2773 57.5469 31.5859 57.7656 30.7266 57.7891L35.5781 63.2031C35.6797 63.3047 35.7305 63.4062 35.7305 63.5078C35.7305 63.5625 35.7148 63.6172 35.6836 63.6719C35.6602 63.7266 35.6133 63.7969 35.543 63.8828L35.1445 64.2344C35.082 64.3203 34.9922 64.3633 34.875 64.3633C34.7344 64.3633 34.6172 64.3086 34.5234 64.1992L29.3789 58.3633C28.9336 57.8789 28.6172 57.4883 28.4297 57.1914C28.25 56.8867 28.1602 56.5977 28.1602 56.3242C28.1602 56.0352 28.2539 55.7656 28.4414 55.5156C28.6289 55.2656 28.875 55.0664 29.1797 54.918C29.4922 54.7617 29.8203 54.6836 30.1641 54.6836C30.7891 54.6836 31.1797 55.1523 31.3359 56.0898C31.7578 55.9492 32.0547 55.6523 32.2266 55.1992C32.4062 54.7461 32.4961 54.0859 32.4961 53.2188V50.2656H27.0117C26.8555 50.2656 26.7383 50.2266 26.6602 50.1484C26.5742 50.0703 26.5312 49.957 26.5312 49.8086V49.3281C26.5312 49.0312 26.6914 48.8828 27.0117 48.8828H44.4141ZM39.9141 50.2656H34.1016V53.2188C34.1016 54.3672 33.957 55.2734 33.668 55.9375C34.1992 56.3906 34.7656 56.7227 35.3672 56.9336C35.9688 57.1445 36.6211 57.25 37.3242 57.25C38.1992 57.25 39.0625 57.1133 39.9141 56.8398V50.2656ZM40.7695 46.75C40.3477 46.75 40.0469 46.6602 39.8672 46.4805C39.6875 46.293 39.5977 45.9922 39.5977 45.5781C39.5977 45.1562 39.6953 44.8633 39.8906 44.6992C40.0781 44.5273 40.3711 44.4414 40.7695 44.4414C41.1836 44.4414 41.4805 44.5391 41.6602 44.7344C41.8398 44.9219 41.9219 45.2031 41.9062 45.5781C41.9297 46.3594 41.5508 46.75 40.7695 46.75ZM57.8672 48.8828C58.1797 48.8828 58.3359 49.0312 58.3359 49.3281V49.8086C58.3359 49.957 58.293 50.0703 58.207 50.1484C58.1289 50.2266 58.0156 50.2656 57.8672 50.2656H51.0938V53.2188C51.0938 54.3672 50.9492 55.2734 50.6602 55.9375C51.1914 56.3906 51.7578 56.7227 52.3594 56.9336C52.9609 57.1445 53.6133 57.25 54.3164 57.25C55.1758 57.25 56.0312 57.1094 56.8828 56.8281C56.9688 56.8047 57.0352 56.793 57.082 56.793C57.2773 56.793 57.4062 56.8945 57.4688 57.0977L57.6328 57.5664C57.6562 57.6211 57.668 57.6914 57.668 57.7773C57.668 57.9648 57.5664 58.0859 57.3633 58.1406C56.332 58.4766 55.3164 58.6445 54.3164 58.6445C53.4883 58.6445 52.6797 58.5156 51.8906 58.2578C51.1094 58 50.4102 57.625 49.793 57.1328C49.2695 57.5469 48.5781 57.7656 47.7188 57.7891L52.5703 63.2031C52.6719 63.3047 52.7227 63.4062 52.7227 63.5078C52.7227 63.5625 52.707 63.6172 52.6758 63.6719C52.6523 63.7266 52.6055 63.7969 52.5352 63.8828L52.1367 64.2344C52.0742 64.3203 51.9844 64.3633 51.8672 64.3633C51.7266 64.3633 51.6094 64.3086 51.5156 64.1992L46.3711 58.3633C45.9258 57.8789 45.6094 57.4883 45.4219 57.1914C45.2422 56.8867 45.1523 56.5977 45.1523 56.3242C45.1523 56.0352 45.2461 55.7656 45.4336 55.5156C45.6211 55.2656 45.8672 55.0664 46.1719 54.918C46.4844 54.7617 46.8125 54.6836 47.1562 54.6836C47.7812 54.6836 48.1719 55.1523 48.3281 56.0898C48.75 55.9492 49.0469 55.6523 49.2188 55.1992C49.3984 54.7461 49.4883 54.0859 49.4883 53.2188V50.2656H44.0039C43.8477 50.2656 43.7305 50.2266 43.6523 50.1484C43.5664 50.0703 43.5234 49.957 43.5234 49.8086V49.3281C43.5234 49.0312 43.6836 48.8828 44.0039 48.8828H57.8672ZM74.6836 48.8828C75.0039 48.8828 75.1641 49.0312 75.1641 49.3281V49.8086C75.1641 50.1133 75.0039 50.2656 74.6836 50.2656H66.1172V54.8828C67.2109 53.8047 68.3945 53.2656 69.668 53.2656C70.4023 53.2656 71.0625 53.4297 71.6484 53.7578C72.2344 54.0859 72.6953 54.543 73.0312 55.1289C73.3672 55.707 73.5352 56.3594 73.5352 57.0859C73.5352 58.2031 73.1016 59.5352 72.2344 61.082C72.1328 61.2461 72.0156 61.3281 71.8828 61.3281C71.8047 61.3281 71.7109 61.3008 71.6016 61.2461L71.0156 60.9414C70.8516 60.832 70.7695 60.707 70.7695 60.5664C70.7695 60.4648 70.793 60.3711 70.8398 60.2852C71.2148 59.6055 71.4922 59 71.6719 58.4688C71.8594 57.9375 71.9531 57.4414 71.9531 56.9805C71.9531 56.2695 71.7539 55.7109 71.3555 55.3047C70.957 54.8906 70.4375 54.6836 69.7969 54.6836C69.1328 54.6836 68.4844 54.9062 67.8516 55.3516C67.2266 55.7969 66.6484 56.4414 66.1172 57.2852V63.543C66.1172 63.6992 66.0664 63.8164 65.9648 63.8945C65.8633 63.9648 65.6953 64 65.4609 64H65.1797C64.9453 64 64.7773 63.9648 64.6758 63.8945C64.5742 63.8164 64.5234 63.6992 64.5234 63.543V59.1953C63.4688 60.2812 62.2383 60.8242 60.832 60.8242C60.0508 60.8164 59.3242 60.6562 58.6523 60.3438C57.9883 60.0312 57.4531 59.5703 57.0469 58.9609C56.6406 58.3438 56.4375 57.6055 56.4375 56.7461C56.4375 55.9883 56.6055 55.3203 56.9414 54.7422C57.2852 54.1641 57.7656 53.7188 58.3828 53.4062C59 53.0938 59.7109 52.9375 60.5156 52.9375C61.2031 52.9375 61.8906 53.0664 62.5781 53.3242C63.2656 53.582 63.9141 53.9727 64.5234 54.4961V50.2656H55.3711C55.2148 50.2656 55.0977 50.2266 55.0195 50.1484C54.9336 50.0703 54.8906 49.957 54.8906 49.8086V49.3281C54.8906 49.0312 55.0508 48.8828 55.3711 48.8828H74.6836ZM60.7969 59.4414C61.4844 59.4414 62.1406 59.2305 62.7656 58.8086C63.3984 58.3789 63.9844 57.7266 64.5234 56.8516V56.2422C63.9219 55.625 63.2383 55.1523 62.4727 54.8242C61.7148 54.4883 61.0312 54.3203 60.4219 54.3203C59.7266 54.3203 59.1602 54.5352 58.7227 54.9648C58.293 55.3867 58.0781 55.9727 58.0781 56.7227C58.0781 57.293 58.2031 57.7812 58.4531 58.1875C58.7109 58.5938 59.043 58.9023 59.4492 59.1133C59.8633 59.3242 60.3125 59.4336 60.7969 59.4414ZM80.7539 48.8828C81.0742 48.8828 81.2344 49.0312 81.2344 49.3281V49.8086C81.2344 49.957 81.1914 50.0703 81.1055 50.1484C81.0273 50.2266 80.9102 50.2656 80.7539 50.2656H77.8477V63.543C77.8477 63.6992 77.7969 63.8164 77.6953 63.8945C77.5938 63.9648 77.4258 64 77.1914 64H76.9102C76.6758 64 76.5078 63.9648 76.4062 63.8945C76.3047 63.8164 76.2539 63.6992 76.2539 63.543V50.2656H74.2852C74.1289 50.2656 74.0117 50.2266 73.9336 50.1484C73.8477 50.0703 73.8047 49.957 73.8047 49.8086V49.3281C73.8047 49.0312 73.9648 48.8828 74.2852 48.8828H80.7539ZM90.7617 48.8828C91.082 48.8828 91.2422 49.0312 91.2422 49.3281V49.8086C91.2422 49.957 91.1992 50.0703 91.1133 50.1484C91.0352 50.2266 90.918 50.2656 90.7617 50.2656H88.2539V53.2188C88.2539 54.7266 87.9414 55.8594 87.3164 56.6172C86.6914 57.3672 85.6758 57.7578 84.2695 57.7891L89.0977 63.2031C89.2148 63.3047 89.2734 63.4062 89.2734 63.5078C89.2734 63.5625 89.2578 63.6172 89.2266 63.6719C89.1953 63.7188 89.1406 63.7891 89.0625 63.8828L88.6641 64.2344C88.6016 64.3203 88.5117 64.3633 88.3945 64.3633C88.2695 64.3633 88.1523 64.3086 88.043 64.1992L82.8984 58.3633C82.4609 57.8711 82.1484 57.4766 81.9609 57.1797C81.7812 56.8828 81.6914 56.5977 81.6914 56.3242C81.6914 56.0352 81.7852 55.7656 81.9727 55.5156C82.1602 55.2656 82.4062 55.0664 82.7109 54.918C83.0234 54.7617 83.3516 54.6836 83.6953 54.6836C83.9609 54.6836 84.207 54.7891 84.4336 55C84.6602 55.2109 84.8125 55.6602 84.8906 56.3477C85.5391 56.2227 85.9922 55.918 86.25 55.4336C86.5156 54.9492 86.6484 54.2109 86.6484 53.2188V50.2656H80.332C80.1758 50.2656 80.0586 50.2266 79.9805 50.1484C79.8945 50.0703 79.8516 49.957 79.8516 49.8086V49.3281C79.8516 49.0312 80.0117 48.8828 80.332 48.8828H90.7617ZM107.742 48.8828C108.062 48.8828 108.223 49.0312 108.223 49.3281V49.8086C108.223 49.957 108.18 50.0703 108.094 50.1484C108.016 50.2266 107.898 50.2656 107.742 50.2656H104.836V63.543C104.836 63.6992 104.785 63.8164 104.684 63.8945C104.582 63.9648 104.414 64 104.18 64H103.898C103.664 64 103.496 63.9648 103.395 63.8945C103.293 63.8164 103.242 63.6992 103.242 63.543V58.2812C102.375 58.5234 101.512 58.6445 100.652 58.6445C99.8242 58.6445 99.0156 58.5156 98.2266 58.2578C97.4453 58 96.7461 57.625 96.1289 57.1328C95.6055 57.5469 94.9141 57.7656 94.0547 57.7891L98.9062 63.2031C99.0078 63.3047 99.0586 63.4062 99.0586 63.5078C99.0586 63.5625 99.043 63.6172 99.0117 63.6719C98.9883 63.7266 98.9414 63.7969 98.8711 63.8828L98.4727 64.2344C98.4102 64.3203 98.3203 64.3633 98.2031 64.3633C98.0625 64.3633 97.9453 64.3086 97.8516 64.1992L92.707 58.3633C92.2617 57.8789 91.9453 57.4883 91.7578 57.1914C91.5781 56.8867 91.4883 56.5977 91.4883 56.3242C91.4883 56.0352 91.582 55.7656 91.7695 55.5156C91.957 55.2656 92.2031 55.0664 92.5078 54.918C92.8203 54.7617 93.1484 54.6836 93.4922 54.6836C94.1172 54.6836 94.5078 55.1523 94.6641 56.0898C95.0859 55.9492 95.3828 55.6523 95.5547 55.1992C95.7344 54.7461 95.8242 54.0859 95.8242 53.2188V50.2656H90.3398C90.1836 50.2656 90.0664 50.2266 89.9883 50.1484C89.9023 50.0703 89.8594 49.957 89.8594 49.8086V49.3281C89.8594 49.0312 90.0195 48.8828 90.3398 48.8828H107.742ZM103.242 50.2656H97.4297V53.2188C97.4297 54.3672 97.2852 55.2734 96.9961 55.9375C97.5273 56.3906 98.0938 56.7227 98.6953 56.9336C99.2969 57.1445 99.9492 57.25 100.652 57.25C101.527 57.25 102.391 57.1133 103.242 56.8398V50.2656ZM103.523 49.5977L103.383 49.1875L102.621 50.0195L96.8438 44.8281C96.7344 44.7422 96.6797 44.6367 96.6797 44.5117C96.6797 44.3867 96.7227 44.2773 96.8086 44.1836L97.1484 43.8438C97.25 43.7266 97.3633 43.668 97.4883 43.668C97.582 43.668 97.6875 43.7227 97.8047 43.832L103.324 48.9766L101.402 43.1055C101.379 43.0352 101.367 42.9727 101.367 42.918C101.367 42.7148 101.48 42.5898 101.707 42.543L102.246 42.4023C102.324 42.3867 102.379 42.3789 102.41 42.3789C102.512 42.3789 102.602 42.4102 102.68 42.4727C102.758 42.5273 102.812 42.6055 102.844 42.707L104.906 49.2461L103.523 49.5977ZM119.977 48.8828C120.297 48.8828 120.457 49.0312 120.457 49.3281V49.8086C120.457 50.1133 120.297 50.2656 119.977 50.2656H117.48V54.0859C117.48 54.2891 117.457 54.4375 117.41 54.5312C117.363 54.625 117.254 54.6836 117.082 54.707L114.879 54.9648C111.918 55.2773 110.438 56.3359 110.438 58.1406C110.438 58.8047 110.625 59.3789 111 59.8633C111.383 60.3477 111.926 60.7188 112.629 60.9766C113.34 61.2344 114.172 61.3633 115.125 61.3633C116.109 61.3633 116.965 61.2227 117.691 60.9414C117.762 60.9023 117.84 60.8828 117.926 60.8828C118.105 60.8828 118.223 60.9844 118.277 61.1875L118.441 61.7031C118.465 61.7578 118.477 61.8203 118.477 61.8906C118.477 62.0703 118.367 62.2031 118.148 62.2891C117.258 62.6172 116.242 62.7812 115.102 62.7812C113.891 62.7812 112.809 62.5859 111.855 62.1953C110.91 61.7969 110.172 61.2422 109.641 60.5312C109.109 59.8125 108.844 58.9844 108.844 58.0469C108.844 56.7969 109.332 55.793 110.309 55.0352C111.285 54.2773 112.723 53.7852 114.621 53.5586L115.875 53.418V50.2656H107.332C107.176 50.2656 107.059 50.2266 106.98 50.1484C106.895 50.0703 106.852 49.957 106.852 49.8086V49.3281C106.852 49.0312 107.012 48.8828 107.332 48.8828H119.977Z" fill="#00446D"/>
</svg>
