<svg width="54" height="54" viewBox="0 0 54 54" fill="none" xmlns="http://www.w3.org/2000/svg">
<path d="M28.6748 28.7368L33.1483 33.8524L32.2712 34.6193L27.7978 29.5038L28.6748 28.7368Z" fill="#283D49"/>
<path d="M28.9487 37.2458L36.704 46.1148C37.4315 46.9469 38.696 47.0313 39.5279 46.3039L43.8824 42.4961C44.7145 41.7685 44.7991 40.5041 44.0716 39.6721L36.3163 30.8032C35.5887 29.971 34.3243 29.8866 33.4923 30.6141L29.1379 34.4218C28.3057 35.1496 28.221 36.4137 28.9487 37.2458Z" fill="#4A6273"/>
<path d="M31.9116 37.6062L36.6493 43.0242C37.0788 43.5155 37.8253 43.5656 38.3168 43.136L40.7833 40.9793C41.2746 40.55 41.3247 39.8034 40.8951 39.3119L36.1573 33.8938C35.7277 33.4027 34.9812 33.3524 34.4898 33.7821L32.0234 35.9388C31.5321 36.3683 31.482 37.1148 31.9116 37.6062Z" fill="#FEFEFE"/>
<path d="M27.1618 36.4062C27.2162 36.4684 27.2823 36.5192 27.3563 36.5559C27.4304 36.5925 27.5109 36.6142 27.5934 36.6197C27.6758 36.6252 27.7585 36.6145 27.8368 36.588C27.915 36.5616 27.9873 36.52 28.0495 36.4656L35.6629 29.8083C35.7885 29.6984 35.8653 29.5432 35.8765 29.3767C35.8876 29.2102 35.8322 29.0461 35.7224 28.9204C35.6125 28.7949 35.4572 28.7181 35.2907 28.707C35.1243 28.6958 34.9602 28.7513 34.8345 28.8611L27.2212 35.5184C27.0956 35.6282 27.0188 35.7835 27.0077 35.95C26.9965 36.1165 27.052 36.2806 27.1618 36.4062Z" fill="#FE5B67"/>
<path d="M25.2213 26.5554L20.7478 21.4397L21.6249 20.6727L26.0983 25.7884L25.2213 26.5554Z" fill="#283D49"/>
<path d="M17.6541 24.4518L9.92756 15.6158C9.20109 14.7851 9.28568 13.5226 10.1165 12.7961L14.4755 8.98437C15.3063 8.2579 16.5687 8.34249 17.2953 9.17327L25.0217 18.0091C25.7482 18.8399 25.6636 20.1025 24.8328 20.8289L20.4738 24.6407C19.6431 25.3672 18.3806 25.2826 17.6541 24.4518Z" fill="#4A6273"/>
<path d="M17.9183 21.4088L12.9787 15.7599C12.552 15.272 12.6016 14.5306 13.0896 14.1039L15.3751 12.1054C15.863 11.6788 16.6045 11.7285 17.0311 12.2164L21.9707 17.8653C22.3973 18.3532 22.3477 19.0946 21.8598 19.5212L19.5743 21.5199C19.0864 21.9464 18.3449 21.8967 17.9183 21.4088Z" fill="#FEFEFE"/>
<path d="M18.2222 26.3051C18.1678 26.2429 18.1261 26.1706 18.0997 26.0923C18.0732 26.014 18.0625 25.9313 18.068 25.8489C18.0735 25.7664 18.0952 25.6859 18.1319 25.6118C18.1685 25.5378 18.2194 25.4717 18.2816 25.4173L25.8949 18.7599C26.0205 18.65 26.1846 18.5946 26.3511 18.6058C26.5176 18.6169 26.6729 18.6938 26.7827 18.8194C26.8925 18.945 26.9479 19.1091 26.9368 19.2756C26.9256 19.4421 26.8488 19.5974 26.7231 19.7072L19.1099 26.3646C18.9843 26.4744 18.8202 26.5298 18.6537 26.5187C18.4872 26.5075 18.332 26.4307 18.2222 26.3051Z" fill="#FE5B67"/>
<path d="M22.7615 34.0847L20.0514 30.9855L26.5757 25.28L29.286 28.3792L22.7615 34.0847Z" fill="#FFE3D1"/>
<path d="M22.5021 34.7615L19.3468 31.1531C19.2972 31.0963 19.2722 31.0222 19.2772 30.947C19.2822 30.8719 19.3169 30.8018 19.3737 30.7522L19.5133 30.63C19.5981 30.5559 19.6967 30.4991 19.8035 30.4631C19.9102 30.427 20.023 30.4124 20.1355 30.4199C20.2479 30.4274 20.3577 30.457 20.4587 30.507C20.5597 30.557 20.6498 30.6264 20.724 30.7112L23.1237 33.4556C23.1979 33.5405 23.2546 33.6391 23.2907 33.7458C23.3267 33.8526 23.3414 33.9654 23.3339 34.0778C23.3264 34.1902 23.2968 34.3 23.2468 34.401C23.1968 34.502 23.1274 34.5922 23.0426 34.6663L22.9029 34.7885C22.8461 34.838 22.772 34.863 22.6969 34.8579C22.6217 34.8529 22.5517 34.8182 22.5021 34.7615Z" fill="#304757"/>
<path d="M32.3594 26.9587L28.3943 22.4243L26.1759 24.3641C26.1159 24.4165 26.0668 24.4803 26.0315 24.5517C25.9961 24.6231 25.9752 24.7008 25.9699 24.7803C25.9645 24.8598 25.9749 24.9395 26.0004 25.015C26.0259 25.0905 26.066 25.1602 26.1185 25.2202L29.2849 28.8411C29.3373 28.9011 29.401 28.9502 29.4724 28.9856C29.5439 29.0209 29.6215 29.0419 29.701 29.0472C29.7805 29.0525 29.8603 29.0422 29.9358 29.0167C30.0113 28.9912 30.081 28.9511 30.141 28.8986L32.3594 26.9587Z" fill="#E0BEA8"/>
<path d="M34.6364 26.8702L34.6164 26.8473C34.57 26.7943 34.5346 26.7327 34.512 26.6659C34.4894 26.5992 34.4803 26.5287 34.485 26.4584C34.4897 26.3881 34.5082 26.3194 34.5394 26.2563C34.5706 26.1931 34.614 26.1368 34.6671 26.0904L40.4268 21.0537L41.1532 21.8842L35.3933 26.9208C35.3403 26.9672 35.2787 27.0027 35.2119 27.0253C35.1452 27.0479 35.0746 27.0571 35.0043 27.0524C34.9341 27.0477 34.8654 27.0291 34.8022 26.9979C34.7391 26.9666 34.6827 26.9233 34.6364 26.8702ZM28.8059 20.2024L28.786 20.1795C28.7396 20.1265 28.7041 20.0649 28.6816 19.9981C28.659 19.9314 28.6498 19.8609 28.6545 19.7906C28.6592 19.7203 28.6777 19.6517 28.7089 19.5885C28.7401 19.5254 28.7835 19.469 28.8365 19.4226L34.5964 14.386L35.3226 15.2166L29.5628 20.2532C29.4557 20.3468 29.3158 20.3941 29.1738 20.3845C29.0319 20.375 28.8996 20.3095 28.8059 20.2024Z" fill="#D94C53"/>
<path d="M39.977 13.5638L40.9281 13.674L39.0197 18.1051L38.2685 17.5366L39.977 13.5638Z" fill="#283D49"/>
<path d="M38.2199 19.6914C39.246 19.6914 40.0779 18.8596 40.0779 17.8334C40.0779 16.8072 39.246 15.9753 38.2199 15.9753C37.1937 15.9753 36.3618 16.8072 36.3618 17.8334C36.3618 18.8596 37.1937 19.6914 38.2199 19.6914Z" fill="#283D49"/>
<path d="M40.5895 8.86264C41.0483 8.86264 41.4202 8.49073 41.4202 8.03197C41.4202 7.5732 41.0483 7.20129 40.5895 7.20129C40.1308 7.20129 39.7589 7.5732 39.7589 8.03197C39.7589 8.49073 40.1308 8.86264 40.5895 8.86264Z" fill="#FE5B67"/>
<path d="M40.5729 14.1071C42.3647 14.1201 43.8769 12.8955 44.2987 11.2331C44.4161 10.77 44.0784 10.3169 43.601 10.3135L37.5987 10.2703C37.1381 10.2669 36.7775 10.6896 36.8793 11.1388C37.2622 12.8277 38.7664 14.0942 40.5729 14.1071Z" fill="#FE5B67"/>
<path d="M40.9816 21.0333L35.4167 14.6696L28.5854 20.6432C28.1613 21.0139 28.1182 21.6582 28.489 22.0822L32.7111 26.9107C33.0819 27.3347 33.7262 27.3779 34.1502 27.0071L40.9816 21.0333Z" fill="#FFEFE5"/>
<path d="M31.7111 23.525C31.666 23.4734 31.6315 23.4134 31.6096 23.3485C31.5877 23.2836 31.5788 23.215 31.5834 23.1467C31.588 23.0783 31.606 23.0116 31.6364 22.9502C31.6668 22.8888 31.709 22.834 31.7605 22.7889L37.5315 17.7424L38.2184 18.5278L32.4473 23.5742C32.3431 23.6653 32.207 23.7113 32.069 23.702C31.9309 23.6928 31.8022 23.6291 31.7111 23.525Z" fill="#D94C53"/>
<path d="M40.5919 21.7705L34.6344 14.9575C34.2654 14.5356 34.3084 13.8947 34.7301 13.5259L34.9584 13.3262C35.0172 13.2748 35.094 13.2489 35.1719 13.2541C35.2499 13.2593 35.3226 13.2953 35.374 13.3541L42.2795 21.2511C42.3309 21.3099 42.3569 21.3867 42.3516 21.4646C42.3464 21.5426 42.3104 21.6153 42.2516 21.6667L42.0234 21.8663C41.6016 22.2352 40.9606 22.1924 40.5919 21.7705Z" fill="#FE5B67"/>
<path d="M33.24 27.1099L28.362 21.5315L28.0195 21.831C27.8854 21.9483 27.8034 22.1141 27.7915 22.2918C27.7796 22.4695 27.8387 22.6447 27.956 22.7789L31.9494 27.3458C32.0667 27.4799 32.2324 27.5619 32.4101 27.5738C32.5878 27.5858 32.763 27.5267 32.8972 27.4095L33.24 27.1099Z" fill="#304757"/>
</svg>
