<svg width="30" height="31" viewBox="0 0 30 31" fill="none" xmlns="http://www.w3.org/2000/svg">
<path d="M29.9978 15.9004C29.9978 7.60074 23.2832 0.873535 14.9989 0.873535C6.71469 0.873535 0 7.60074 0 15.9004C0 23.4009 5.48486 29.6176 12.6554 30.7442V20.2431H8.84759V15.8983H12.6554V12.5874C12.6554 8.8221 14.8936 6.74126 18.3208 6.74126C19.9613 6.74126 21.6792 7.03421 21.6792 7.03421V10.7328H19.7871C17.923 10.7328 17.3425 11.8917 17.3425 13.0786V15.8983H21.5029L20.8385 20.2431H17.3446V30.7442C24.5151 29.6176 30 23.4009 30 15.9004H29.9978Z" fill="#00446D"/>
<path d="M20.8364 20.2447L21.5008 15.8999H17.3404V13.0802C17.3404 11.8912 17.9209 10.7344 19.785 10.7344H21.6771V7.03588C21.6771 7.03588 19.9613 6.74292 18.3186 6.74292C14.8914 6.74292 12.6532 8.82377 12.6532 12.5891V15.8999H8.84546V20.2447H12.6532V30.7459C13.4165 30.8665 14.1991 30.929 14.9968 30.929C15.7945 30.929 16.5771 30.8665 17.3404 30.7459V20.2447H20.8343H20.8364Z" fill="white"/>
</svg>
